<?xml version="1.0" encoding="UTF-8" standalone="no"?>
<svg
   xmlns:dc="http://purl.org/dc/elements/1.1/"
   xmlns:cc="http://creativecommons.org/ns#"
   xmlns:rdf="http://www.w3.org/1999/02/22-rdf-syntax-ns#"
   xmlns:svg="http://www.w3.org/2000/svg"
   xmlns="http://www.w3.org/2000/svg"
   width="224.88437"
   height="84.858429"
   viewBox="0 0 59.500657 22.452125"
   version="1.1"
   id="svg8">
  <defs
     id="defs2" />
  <metadata
     id="metadata5">
    <rdf:RDF>
      <cc:Work
         rdf:about="">
        <dc:format>image/svg+xml</dc:format>
        <dc:type
           rdf:resource="http://purl.org/dc/dcmitype/StillImage" />
        <dc:title></dc:title>
      </cc:Work>
    </rdf:RDF>
  </metadata>
  <g
     id="layer1"
     transform="translate(-17.990748,-85.215569)">
    <path
       d="m 66.261551,87.963377 a 8.4679203,8.4679203 0 0 1 8.467861,8.43621 8.4679203,8.4679203 0 0 1 -8.40444,8.499393 8.4679203,8.4679203 0 0 1 -8.530807,-8.372552"
       id="path835"
       style="opacity:1;fill:none;fill-opacity:1;fill-rule:nonzero;stroke:#0c0000;stroke-width:0.66145832;stroke-linecap:butt;stroke-linejoin:miter;stroke-miterlimit:4;stroke-dasharray:none;stroke-dashoffset:0;stroke-opacity:1;paint-order:markers fill stroke" />
    <path
       style="opacity:1;fill:none;fill-opacity:1;fill-rule:nonzero;stroke:#0c0000;stroke-width:0.66145832;stroke-linecap:butt;stroke-linejoin:miter;stroke-miterlimit:4;stroke-dasharray:none;stroke-dashoffset:0;stroke-opacity:1;paint-order:markers fill stroke"
       id="path843"
       d="m 66.261498,86.724281 a 9.707016,9.707016 0 0 1 9.706947,9.670666 9.707016,9.707016 0 0 1 -9.634246,9.743093 9.707016,9.707016 0 0 1 -9.779105,-9.597692" />
    <path
       style="opacity:1;fill:none;fill-opacity:1;fill-rule:nonzero;stroke:#0c0000;stroke-width:0.66145832;stroke-linecap:butt;stroke-linejoin:miter;stroke-miterlimit:4;stroke-dasharray:none;stroke-dashoffset:0;stroke-opacity:1;paint-order:markers fill stroke"
       id="path839"
       d="m 66.261597,89.173281 a 7.2580166,7.2580166 0 0 1 7.257965,7.230837 7.2580166,7.2580166 0 0 1 -7.203606,7.284992 7.2580166,7.2580166 0 0 1 -7.311918,-7.176275" />
    <path
       d="m 66.261635,90.424759 a 6.0065384,6.0065384 0 0 1 6.006496,5.984045 6.0065384,6.0065384 0 0 1 -5.96151,6.028866 6.0065384,6.0065384 0 0 1 -6.051146,-5.938894"
       id="path841"
       style="opacity:1;fill:none;fill-opacity:1;fill-rule:nonzero;stroke:#0c0000;stroke-width:0.66145832;stroke-linecap:butt;stroke-linejoin:miter;stroke-miterlimit:4;stroke-dasharray:none;stroke-dashoffset:0;stroke-opacity:1;paint-order:markers fill stroke" />
    <path
       style="opacity:1;fill:none;fill-opacity:1;fill-rule:nonzero;stroke:#0c0000;stroke-width:0.66145832;stroke-linecap:butt;stroke-linejoin:miter;stroke-miterlimit:4;stroke-dasharray:none;stroke-dashoffset:0;stroke-opacity:1;paint-order:markers fill stroke"
       id="path847"
       d="M 66.296608,85.527515 A 10.903782,10.903782 0 0 1 77.200313,96.390465 10.903782,10.903782 0 0 1 66.378272,107.33477 10.903782,10.903782 0 0 1 55.393514,96.553793" />
    <path
       style="opacity:1;fill:none;fill-opacity:1;fill-rule:nonzero;stroke:#0c0000;stroke-width:0.66145832;stroke-linecap:butt;stroke-linejoin:miter;stroke-miterlimit:4;stroke-dasharray:none;stroke-dashoffset:0;stroke-opacity:1;paint-order:markers fill stroke"
       id="path849"
       d="m 66.261719,92.977138 a 3.4541595,3.4541595 0 0 1 3.454135,3.441224 3.4541595,3.4541595 0 0 1 -3.428265,3.466998 3.4541595,3.4541595 0 0 1 -3.479812,-3.415258" />
    <path
       style="opacity:1;fill:none;fill-opacity:1;fill-rule:nonzero;stroke:#0c0000;stroke-width:0.66145832;stroke-linecap:butt;stroke-linejoin:miter;stroke-miterlimit:4;stroke-dasharray:none;stroke-dashoffset:0;stroke-opacity:1;paint-order:markers fill stroke"
       id="path845"
       d="m 66.261673,91.726959 a 4.7043381,4.7043381 0 0 1 4.704305,4.686722 4.7043381,4.7043381 0 0 1 -4.669072,4.721819 4.7043381,4.7043381 0 0 1 -4.739274,-4.651353" />
    <text
       xml:space="preserve"
       style="font-style:normal;font-variant:normal;font-weight:bold;font-stretch:normal;font-size:6.70277786px;line-height:125%;font-family:'Fira Code';-inkscape-font-specification:'Fira Code Bold';font-variant-ligatures:normal;font-variant-caps:normal;font-variant-numeric:normal;font-feature-settings:normal;text-align:end;letter-spacing:0px;word-spacing:0px;writing-mode:lr-tb;text-anchor:end;fill:#000000;fill-opacity:1;stroke:none;stroke-width:0.26458332px;stroke-linecap:butt;stroke-linejoin:miter;stroke-opacity:1"
       x="54.277439"
       y="101.85458"
       id="text914"
       class="svg-all"><tspan
         id="tspan912"
         x="54.277439"
         y="101.85458"
         style="font-style:normal;font-variant:normal;font-weight:bold;font-stretch:normal;font-size:6.70277786px;font-family:'Fira Code';-inkscape-font-specification:'Fira Code Bold';text-align:end;text-anchor:end;stroke-width:0.26458332px">Pátek</tspan></text>
    <text
       xml:space="preserve"
       style="font-style:normal;font-variant:normal;font-weight:normal;font-stretch:normal;font-size:10.9361105px;line-height:125%;font-family:'Open Sans';-inkscape-font-specification:'Open Sans, Normal';font-variant-ligatures:normal;font-variant-caps:normal;font-variant-numeric:normal;font-feature-settings:normal;text-align:start;letter-spacing:0px;word-spacing:0px;writing-mode:lr-tb;text-anchor:start;fill:#000000;fill-opacity:1;stroke:none;stroke-width:0.26458332px;stroke-linecap:butt;stroke-linejoin:miter;stroke-opacity:1"
       x="65.118622"
       y="95.176582"
       id="text906"
       class="svg-all"><tspan
         id="tspan904"
         x="65.118622"
         y="95.176582"
         style="font-style:normal;font-variant:normal;font-weight:bold;font-stretch:normal;font-family:'Fira Code';-inkscape-font-specification:'Fira Code Bold';text-align:end;text-anchor:end;stroke-width:0.26458332px">Pátek</tspan></text>
  </g>
</svg>
